<svg xmlns="http://www.w3.org/2000/svg" version="1.1" xmlns:xlink="http://www.w3.org/1999/xlink" width="200" height="200"><svg xmlns="http://www.w3.org/2000/svg" version="1.1" xmlns:xlink="http://www.w3.org/1999/xlink" viewBox="0 0 200 200"><rect width="200" height="200" fill="url('#gradient')"></rect><defs><linearGradient id="SvgjsLinearGradient1006" gradientTransform="rotate(45 0.5 0.5)"><stop offset="0%" stop-color="#410607"></stop><stop offset="100%" stop-color="#2b1220"></stop></linearGradient></defs><g><g fill="#326531" transform="matrix(5.818181818181818,0,0,5.818181818181818,3.7643070329319386,137.8172029581937)" stroke="#b77332" stroke-width="0.2"><path d="M6.85 0L1.07 0L1.07-14.22L6.18-14.22Q8.93-14.22 10.36-13.21Q11.79-12.21 11.79-10.29L11.79-10.29Q11.79-9.19 11.28-8.41Q10.77-7.63 9.79-7.26L9.79-7.26Q10.90-6.96 11.49-6.16Q12.09-5.36 12.09-4.21L12.09-4.21Q12.09-2.12 10.77-1.07Q9.44-0.02 6.85 0L6.85 0ZM6.90-6.04L4.50-6.04L4.50-2.64L6.75-2.64Q7.68-2.64 8.17-3.06Q8.67-3.49 8.67-4.26L8.67-4.26Q8.67-6.04 6.90-6.04L6.90-6.04ZM4.50-11.57L4.50-8.29L6.29-8.29Q7.41-8.30 7.89-8.70Q8.37-9.10 8.37-9.88L8.37-9.88Q8.37-10.78 7.85-11.18Q7.33-11.57 6.18-11.57L6.18-11.57L4.50-11.57ZM19.81-14.22L14.95 1.22L12.62 1.22L17.47-14.22L19.81-14.22ZM26.77 0L21.00 0L21.00-14.22L26.10-14.22Q28.85-14.22 30.28-13.21Q31.71-12.21 31.71-10.29L31.71-10.29Q31.71-9.19 31.20-8.41Q30.69-7.63 29.71-7.26L29.71-7.26Q30.82-6.96 31.42-6.16Q32.01-5.36 32.01-4.21L32.01-4.21Q32.01-2.12 30.69-1.07Q29.37-0.02 26.77 0L26.77 0ZM26.83-6.04L24.42-6.04L24.42-2.64L26.67-2.64Q27.60-2.64 28.10-3.06Q28.59-3.49 28.59-4.26L28.59-4.26Q28.59-6.04 26.83-6.04L26.83-6.04ZM24.42-11.57L24.42-8.29L26.21-8.29Q27.33-8.30 27.81-8.70Q28.29-9.10 28.29-9.88L28.29-9.88Q28.29-10.78 27.77-11.18Q27.26-11.57 26.10-11.57L26.10-11.57L24.42-11.57Z"></path></g></g></svg><style>@media (prefers-color-scheme: light) { :root { filter: none; } }
@media (prefers-color-scheme: dark) { :root { filter: none; } }
</style></svg>